Coordinates
version=1
nRows=13
nColumns=63
inDegrees=yes

Units are S.I. units (second, meters, Newtons, ...)
If the header above contains a line with 'inDegrees', this indicates whether rotational values are in degrees (yes) or radians (no).

endheader
time	pelvis_tilt	pelvis_list	pelvis_rotation	pelvis_tx	pelvis_ty	pelvis_tz	hip_flexion_r	hip_adduction_r	hip_rotation_r	knee_angle_r	knee_angle_r_beta	ankle_angle_r	subtalar_angle_r	mtp_angle_r	hip_flexion_l	hip_adduction_l	hip_rotation_l	knee_angle_l	knee_angle_l_beta	ankle_angle_l	subtalar_angle_l	mtp_angle_l	L5_S1_Flex_Ext	L5_S1_Lat_Bending	L5_S1_axial_rotation	L4_L5_Flex_Ext	L4_L5_Lat_Bending	L4_L5_axial_rotation	L3_L4_Flex_Ext	L3_L4_Lat_Bending	L3_L4_axial_rotation	L2_L3_Flex_Ext	L2_L3_Lat_Bending	L2_L3_axial_rotation	L1_L2_Flex_Ext	L1_L2_Lat_Bending	L1_L2_axial_rotation	L1_T12_Flex_Ext	L1_T12_Lat_Bending	L1_T12_axial_rotation	Abs_r3	Abs_r2	Abs_r1	Abs_t1	Abs_t2	neck_flexion	neck_bending	neck_rotation	arm_flex_r	arm_add_r	arm_rot_r	elbow_flex_r	pro_sup_r	wrist_flex_r	wrist_dev_r	arm_flex_l	arm_add_l	arm_rot_l	elbow_flex_l	pro_sup_l	wrist_flex_l	wrist_dev_l
0.000000	8.231846	-1.234387	110.663634	0.135915	0.511348	0.908032	0.681266	5.705472	-14.951986	11.438439	0.199638	30.441210	4.718483	0.000000	6.167666	-8.677382	-1.448627	11.572153	0.201972	35.287825	8.017535	0.000000	0.080535	0.868942	-2.727151	0.149562	1.155693	-2.897598	0.132312	2.112745	-2.897598	0.092044	2.112745	-2.386257	0.074785	1.771946	-2.215810	0.046018	1.345991	-2.045363	0.575257	9.829644	-15.167595	0.000000	0.000000	25.771636	-0.667399	7.026686	12.217513	-5.906748	57.053116	44.347344	55.457294	2.279605	18.162427	15.567373	-3.292788	58.301210	43.072214	88.700099	1.718119	1.172873
0.016949	7.806697	-1.365161	110.673993	0.136487	0.511045	0.907484	0.943900	4.874004	-17.053341	12.372943	0.215949	31.520617	7.181243	0.000000	5.983392	-8.254782	-1.884763	11.328522	0.197720	35.057328	8.123799	0.000000	0.113866	0.793737	-2.633419	0.211461	1.055671	-2.798008	0.187071	1.929893	-2.798008	0.130138	1.929893	-2.304242	0.105736	1.618589	-2.139653	0.065063	1.229499	-1.975065	0.813337	8.978914	-14.646289	0.000000	0.000000	26.082934	-1.222648	4.439961	12.527836	-6.330089	57.431239	44.814928	51.228295	-0.509712	16.933123	15.399745	-3.272785	57.730800	42.935904	88.628338	2.006454	0.575294
0.033898	7.469327	-1.469202	110.677921	0.136949	0.510764	0.907030	1.166917	4.198877	-18.801056	13.147698	0.229471	32.431466	9.222966	0.000000	5.806475	-7.915546	-2.122756	11.086436	0.193495	34.855483	8.112942	0.000000	0.141841	0.733703	-2.553636	0.263413	0.975825	-2.713238	0.233031	1.783926	-2.713238	0.162110	1.783926	-2.234432	0.131714	1.496168	-2.074829	0.081048	1.136506	-1.915227	1.013158	8.299799	-14.202558	0.000000	0.000000	26.355251	-1.707850	2.395883	12.762597	-6.689672	57.721100	45.264580	47.668814	-2.790303	15.895116	15.265572	-3.262916	57.249525	42.868355	88.569055	2.177754	0.057655
0.050847	7.212394	-1.549110	110.676273	0.137311	0.510502	0.906663	1.353837	3.667518	-20.221032	13.775969	0.240436	33.185631	10.875099	0.000000	5.637061	-7.652927	-2.184354	10.847000	0.189316	34.679186	7.998262	0.000000	0.164882	0.687540	-2.486766	0.306202	0.914429	-2.642188	0.270884	1.671685	-2.642188	0.188443	1.671685	-2.175920	0.153109	1.402032	-2.020497	0.094213	1.065000	-1.865074	1.177734	7.777593	-13.830644	0.000000	0.000000	26.591227	-2.126933	0.845193	12.926688	-6.990208	57.924918	45.696085	44.728857	-4.606943	15.035271	15.160887	-3.260947	56.846121	42.861838	88.521034	2.245783	-0.384307
0.067797	7.028557	-1.607484	110.669900	0.137583	0.510257	0.906377	1.508182	3.267352	-21.339165	14.271024	0.249076	33.794987	12.169091	0.000000	5.475298	-7.460175	-2.091307	10.611317	0.185202	34.525335	7.793061	0.000000	0.183410	0.653948	-2.431772	0.340611	0.869751	-2.583758	0.301324	1.590010	-2.583758	0.209619	1.590010	-2.127800	0.170315	1.333531	-1.975815	0.104800	1.012966	-1.823829	1.310080	7.397594	-13.524786	0.000000	0.000000	26.793500	-2.483827	-0.261370	13.025000	-7.236412	58.044908	46.109226	42.358431	-6.004404	14.340454	15.081721	-3.264645	56.509322	42.908623	88.483058	2.224306	-0.754854
0.084746	6.910477	-1.646924	110.659655	0.137777	0.510026	0.906164	1.633472	2.985806	-22.181354	14.646129	0.255623	34.271406	13.136391	0.000000	5.321334	-7.330541	-1.865363	10.380489	0.181174	34.390827	7.510638	0.000000	0.197848	0.631627	-2.387619	0.367424	0.840064	-2.536846	0.325045	1.535739	-2.536846	0.226121	1.535739	-2.089167	0.183722	1.288015	-1.939941	0.113050	0.978391	-1.790715	1.413210	7.145096	-13.279222	0.000000	0.000000	26.964711	-2.782460	-0.973068	13.062426	-7.432996	58.083290	46.503789	40.507542	-7.027461	13.797533	15.024107	-3.271779	56.227866	43.000984	88.453911	2.127086	-1.058252
0.101695	6.850812	-1.670027	110.646391	0.137902	0.509806	0.906017	1.733230	2.810304	-22.773498	14.914551	0.260308	34.626765	13.808447	0.000000	5.175317	-7.257276	-1.528272	10.155621	0.177249	34.272558	7.164294	0.000000	0.208618	0.619278	-2.353272	0.387425	0.823640	-2.500352	0.342739	1.505712	-2.500352	0.238430	1.505712	-2.059113	0.193723	1.262831	-1.912034	0.119204	0.959261	-1.764954	1.490139	7.005395	-13.088194	0.000000	0.000000	27.107499	-3.026763	-1.339162	13.043855	-7.584674	58.042280	46.879558	39.126197	-7.720888	13.393374	14.984074	-3.280117	55.990488	43.131191	88.432375	1.967887	-1.298764
0.118644	6.842222	-1.679394	110.630961	0.137970	0.509596	0.905930	1.810976	2.728273	-23.141493	15.089556	0.263362	34.872935	14.216707	0.000000	5.037393	-7.233631	-1.101781	9.937816	0.173448	34.167426	6.767330	0.000000	0.216142	0.615600	-2.327695	0.401398	0.818748	-2.473176	0.355100	1.496769	-2.473176	0.247029	1.496769	-2.036733	0.200710	1.255331	-1.891252	0.123504	0.953564	-1.745771	1.543882	6.963787	-12.945940	0.000000	0.000000	27.224502	-3.220663	-1.408913	12.974181	-7.696159	57.924096	47.236318	38.164403	-8.129458	13.114842	14.957657	-3.287426	55.785924	43.291517	88.417234	1.760474	-1.480652
0.135593	6.877366	-1.677624	110.614217	0.137990	0.509392	0.905894	1.870230	2.727137	-23.311239	15.184411	0.265018	35.021792	14.392621	0.000000	4.907710	-7.252857	-0.607641	9.728178	0.169789	34.072328	6.333045	0.000000	0.220842	0.619293	-2.309851	0.410126	0.823660	-2.454217	0.362821	1.505749	-2.454217	0.252400	1.505749	-2.021120	0.205074	1.262863	-1.876754	0.126189	0.959285	-1.732389	1.577452	7.005568	-12.846701	0.000000	0.000000	27.318361	-3.368091	-1.231580	12.858294	-7.772165	57.730956	47.573855	37.572164	-8.297946	12.948805	14.940885	-3.291473	55.602910	43.474233	88.407271	1.518610	-1.608181
0.152542	6.948904	-1.667317	110.597011	0.137974	0.509191	0.905904	1.914514	2.794324	-23.308634	15.212383	0.265506	35.085209	14.367636	0.000000	4.786417	-7.308205	-0.067598	9.527808	0.166292	33.984160	5.874740	0.000000	0.223140	0.629058	-2.298706	0.414393	0.836647	-2.442375	0.366596	1.529492	-2.442375	0.255026	1.529492	-2.011368	0.207208	1.282776	-1.867699	0.127502	0.974411	-1.724030	1.593865	7.116033	-12.784715	0.000000	0.000000	27.391714	-3.472975	-0.856427	12.701085	-7.817404	57.465076	47.891952	37.299489	-8.271125	12.882128	14.929790	-3.290027	55.430182	43.671611	88.401270	1.256061	-1.685615
0.169492	7.049496	-1.651070	110.580197	0.137931	0.508993	0.905953	1.947350	2.917259	-23.159575	15.186738	0.265059	35.075060	14.173201	0.000000	4.673660	-7.392926	0.496596	9.337812	0.162976	33.899820	5.405715	0.000000	0.223458	0.643595	-2.293224	0.414983	0.855982	-2.436550	0.367118	1.564837	-2.436550	0.255390	1.564837	-2.006571	0.207503	1.312419	-1.863244	0.127684	0.996929	-1.719918	1.596135	7.280478	-12.754222	0.000000	0.000000	27.447201	-3.539245	-0.332713	12.507447	-7.836591	57.128674	48.190394	37.296384	-8.093769	12.901678	14.920405	-3.280855	55.256476	43.875922	88.398013	0.986589	-1.717216
0.186441	7.155709	-1.638302	110.580873	0.137887	0.508757	0.905995	1.975123	3.061997	-22.912573	15.141825	0.264275	34.993910	13.807252	0.000000	4.567955	-7.486658	1.008882	9.154860	0.159782	33.832119	5.025324	0.000000	0.225672	0.657937	-2.295922	0.419095	0.875056	-2.439417	0.370756	1.599707	-2.439417	0.257920	1.599707	-2.008931	0.209559	1.341664	-1.865436	0.128949	1.019144	-1.721941	1.611951	7.442710	-12.769227	0.000000	0.000000	27.507943	-3.592195	0.126482	12.390426	-7.841034	56.973305	48.412195	37.268830	-7.813695	12.945720	14.914324	-3.259848	55.110661	44.039225	88.403952	0.603014	-1.855524
0.203390	7.278273	-1.626467	110.564611	0.137874	0.508528	0.906084	2.006412	3.239773	-22.556006	15.076371	0.263132	34.871752	13.358287	0.000000	4.468009	-7.604087	1.445841	8.988697	0.156882	33.737775	4.683556	0.000000	0.224691	0.674697	-2.296480	0.417274	0.897347	-2.440010	0.369145	1.640458	-2.440010	0.256800	1.640458	-2.009420	0.208648	1.375842	-1.865890	0.128389	1.045106	-1.722360	1.604947	7.632307	-12.772332	0.000000	0.000000	27.540273	-3.594097	0.633554	12.171124	-7.824960	56.551620	48.644506	37.476455	-7.569270	13.100017	14.893094	-3.209028	54.872756	44.187551	88.392730	0.330699	-1.890697
